<svg width="34" height="34" viewBox="0 0 34 34" fill="none" xmlns="http://www.w3.org/2000/svg">
<path fill-rule="evenodd" clip-rule="evenodd" d="M18.793 18.264C18.4525 18.6045 18.0483 18.8746 17.6033 19.0589C17.1584 19.2432 16.6816 19.3381 16.2 19.3381C15.2275 19.3381 14.2947 18.9517 13.607 18.264C13.2665 17.9235 12.9964 17.5192 12.8121 17.0743C12.6278 16.6294 12.533 16.1526 12.533 15.671C12.533 14.6984 12.9193 13.7657 13.607 13.078C14.2947 12.3903 15.2275 12.0039 16.2 12.0039C17.1726 12.0039 18.1053 12.3903 18.793 13.078C19.4807 13.7657 19.8671 14.6984 19.8671 15.671C19.8671 16.6436 19.4807 17.5763 18.793 18.264ZM19.233 19.647C18.2245 20.4164 16.9612 20.7737 15.6991 20.6467C14.437 20.5197 13.2703 19.9178 12.4352 18.9629C11.6002 18.008 11.1592 16.7715 11.2016 15.5037C11.2441 14.2359 11.7666 13.0316 12.6636 12.1346C13.5606 11.2376 14.7649 10.715 16.0327 10.6726C17.3005 10.6302 18.537 11.0712 19.4919 11.9062C20.4468 12.7412 21.0487 13.9079 21.1757 15.1701C21.3027 16.4322 20.9454 17.6954 20.176 18.704L23.743 22.271L22.8 23.213L19.233 19.647Z" fill="#959595"/>
<path d="M13.7853 16.8227L14.598 17.1086L14.3792 16.2704L14.8338 15.8477L15.1138 17.0771L16.332 17.4339L15.8795 17.8547L15.0507 17.5954L15.2543 18.436L14.7966 18.8616L14.5281 17.6216L13.3276 17.2483L13.7853 16.8227ZM17.8029 16.0662L18.1153 16.4022L16.7162 17.7032L16.4038 17.3672L17.8029 16.0662ZM16.8633 13.9606L17.6761 14.2465L17.4573 13.4083L17.9119 12.9856L18.1918 14.215L19.4101 14.5718L18.9576 14.9926L18.1288 14.7333L18.3324 15.5739L17.8747 15.9995L17.6062 14.7595L16.4056 14.3862L16.8633 13.9606Z" fill="#959595"/>
</svg>
